<?xml version="1.0" encoding="UTF-8"?>
<svg width="1249px" height="3601px" viewBox="0 0 1249 3601" version="1.1" xmlns="http://www.w3.org/2000/svg" xmlns:xlink="http://www.w3.org/1999/xlink">
    <!-- Generator: Sketch 52.5 (67469) - http://www.bohemiancoding.com/sketch -->
    <title>Path 2</title>
    <desc>Created with Sketch.</desc>
    <g id="Page-1" stroke="none" stroke-width="1" fill="none" fill-rule="evenodd">
        <g id="Desktop-HD-Copy-2" transform="translate(-191.000000, -337.000000)" fill="#43E0FF" fill-rule="nonzero">
            <path id="Path-2" d="M1083.06751,3931 L1091.74026,3935.87842 L1090.75974,3937.62158 L1078.75974,3930.87158 L1077.21027,3930 L1078.75974,3929.12842 L1090.75974,3922.37842 L1091.74026,3924.12158 L1083.06751,3929 L1097.49077,3929 C1183.23062,3929 1183.23062,3929 1220.98973,3929 C1247.07951,3929 1266,3887.03497 1266,3833 C1266,3804.15444 1263.22598,3781.79789 1256.94583,3765.75933 C1249.74352,3747.36569 1238.06669,3737.78945 1221.01595,3737.78945 C1215.82387,3737.78945 1215.82387,3737.78945 1204.20115,3737.78945 C1189.57746,3737.78945 1189.57746,3737.78945 1169.38054,3737.78945 C1121.26993,3737.78945 1121.26993,3737.78945 1056.01094,3737.78945 C904.914876,3737.78945 904.914876,3737.78945 726.381393,3737.78945 C608.726016,3737.78945 608.726016,3737.78945 498.92335,3737.78945 C396.119548,3737.78945 396.119548,3737.78945 317.355847,3737.78945 C283.992723,3737.78945 283.992723,3737.78945 259.662044,3737.78945 C240.351322,3737.78945 240.351322,3737.78945 232.087989,3737.78945 C203.419068,3737.78945 189.74212,3716.58863 191.090902,3674.78945 L191.09091,675.003857 C191.041722,662.24954 193.446837,653.659219 198.427653,649.25115 C203.299252,644.93974 217.036103,639.578626 239.847901,633.029105 L1439.7605,337.029105 L1440.2395,338.970895 L240.363397,634.96116 C217.905047,641.409933 204.310556,646.715487 199.753132,650.74885 C195.304925,654.685555 193.043713,662.761901 193.090902,675 L193.090383,3674.82169 C191.773213,3715.65693 204.760989,3735.78945 232.087989,3735.78945 C240.351322,3735.78945 240.351322,3735.78945 259.662044,3735.78945 C283.992723,3735.78945 283.992723,3735.78945 317.355847,3735.78945 C396.119548,3735.78945 396.119548,3735.78945 498.92335,3735.78945 C608.726016,3735.78945 608.726016,3735.78945 726.381393,3735.78945 C904.914876,3735.78945 904.914876,3735.78945 1056.01094,3735.78945 C1121.26993,3735.78945 1121.26993,3735.78945 1169.38054,3735.78945 C1189.57746,3735.78945 1189.57746,3735.78945 1204.20115,3735.78945 C1215.82387,3735.78945 1215.82387,3735.78945 1221.01595,3735.78945 C1238.96819,3735.78945 1251.32736,3745.92528 1258.80815,3765.03011 C1265.19884,3781.35097 1268,3803.92624 1268,3833 C1268,3888.01432 1248.61934,3931 1220.98973,3931 C1183.23062,3931 1183.23062,3931 1097.49077,3931 L1083.06751,3931 Z"></path>
        </g>
    </g>
</svg>